<svg xmlns="http://www.w3.org/2000/svg" id="Layer_1" data-name="Layer 1" viewBox="0 0 170 170"><defs><style>.cls-1{fill:#fff;}.cls-2{fill:#282d33;}.cls-3{fill:#3c81c3;}.cls-4{fill:#7bb042;}</style></defs><title>Serice Packages Icons</title><rect class="cls-1" x="72.73" y="161.14" width="24.54" height="6.27"/><path class="cls-2" d="M110.66,164.62h-10.6v-3.48H94.48v3.48h-19v-3.48H69.94v3.48H59.34a2.79,2.79,0,0,0,0,5.58h51.32a2.79,2.79,0,0,0,0-5.58Z"/><path class="cls-2" d="M106.91,0H121a2.85,2.85,0,0,1,2.85,2.85h0V158.61a2.85,2.85,0,0,1-2.85,2.85H49a2.85,2.85,0,0,1-2.85-2.85V2.85A2.85,2.85,0,0,1,49,0h57.92Zm11.25,5.71H51.84v150h66.31Zm0,0"/><polygon class="cls-2" points="65.71 110.08 112.97 110.08 112.97 114.15 65.71 114.15 65.71 110.08 65.71 110.08"/><polygon class="cls-2" points="57.58 110.08 61.65 110.08 61.65 114.15 57.58 114.15 57.58 110.08 57.58 110.08"/><polygon class="cls-2" points="112.97 135.19 108.91 135.19 108.91 131.13 112.97 131.13 112.97 135.19 112.97 135.19"/><polygon class="cls-2" points="104.84 135.19 57.58 135.19 57.58 131.13 104.84 131.13 104.84 135.19 104.84 135.19"/><polygon class="cls-2" points="57.58 141.65 112.97 141.65 112.97 145.71 57.58 145.71 57.58 141.65 57.58 141.65"/><polygon class="cls-2" points="57.58 120.6 112.97 120.6 112.97 124.67 57.58 124.67 57.58 120.6 57.58 120.6"/><rect class="cls-3" x="57.55" y="12.4" width="55.42" height="54.41"/><polygon class="cls-4" points="57.58 72.17 57.58 96.45 68.68 81.67 79.58 96.19 86.64 86.8 95.61 98.75 97.58 101.37 113 101.37 113 72.17 57.58 72.17"/><circle class="cls-1" cx="103.49" cy="83.29" r="5.13"/></svg>