<svg xmlns="http://www.w3.org/2000/svg" id="Layer_1" data-name="Layer 1" viewBox="0 0 170 170"><defs><style>.cls-1{fill:#3c81c3;}.cls-2{fill:#282d33;}.cls-3{fill:#f38820;}</style></defs><title>Serice Packages Icons</title><polygon class="cls-1" points="19.22 36.33 19.22 51.24 152.52 51.24 152.52 118.33 167.16 118.33 167.16 36.33 19.22 36.33"/><path class="cls-2" d="M151.78,48.37H3.24A3.24,3.24,0,0,0,0,51.6v82.17A3.24,3.24,0,0,0,3.24,137H151.78a3.24,3.24,0,0,0,3.24-3.24V51.6A3.24,3.24,0,0,0,151.78,48.37Zm-3.24,60.9v21.28H6.48V54.84H148.54v54.42Z"/><path class="cls-2" d="M166.76,33H18.22A3.24,3.24,0,0,0,15,36.22v15h6.47V39.46H163.53v75.7h-11v6.48h14.24A3.24,3.24,0,0,0,170,118.4V36.22A3.24,3.24,0,0,0,166.76,33Z"/><rect class="cls-3" x="16.63" y="67.55" width="63.72" height="50.39"/><path class="cls-2" d="M19.43,70H77.7v45.33H19.43V70Zm-3.24,51.8H80.94a3.24,3.24,0,0,0,3.24-3.24V66.79a3.24,3.24,0,0,0-3.24-3.24H16.19A3.24,3.24,0,0,0,13,66.79v51.8a3.24,3.24,0,0,0,3.24,3.24Z"/><rect class="cls-2" x="90.39" y="70.03" width="28.95" height="6.48"/><rect class="cls-2" x="90.39" y="89.45" width="50.19" height="6.48"/><rect class="cls-2" x="90.39" y="108.88" width="50.19" height="6.48"/><path class="cls-2" d="M32.38,95.93V86.21a3.24,3.24,0,1,1,6.48,0v9.71ZM35.61,76.5a9.72,9.72,0,0,0-9.71,9.71v19.43a3.24,3.24,0,0,0,6.48,0V102.4h6.48v3.24a3.24,3.24,0,0,0,6.48,0V86.21a9.72,9.72,0,0,0-9.71-9.71Z"/><path class="cls-2" d="M64.75,99.16a3.24,3.24,0,0,1-3.24,3.24H58.28V83h3.24a3.24,3.24,0,0,1,3.24,3.24v13ZM61.51,76.5H55a3.24,3.24,0,0,0-3.24,3.24v25.9A3.24,3.24,0,0,0,55,108.88h6.48a9.72,9.72,0,0,0,9.71-9.71v-13a9.72,9.72,0,0,0-9.71-9.71Z"/></svg>