<svg xmlns="http://www.w3.org/2000/svg" id="Layer_1" data-name="Layer 1" viewBox="0 0 170 170"><defs><style>.cls-1{fill:#282d33;}.cls-2{fill:#fff;}.cls-3{fill:#3c81c3;}.cls-4{fill:#7bb042;}</style></defs><title>Serice Packages Icons</title><rect class="cls-1" x="35.9" y="142.69" width="22.02" height="6.63"/><rect class="cls-1" x="42.25" y="156.77" width="22.02" height="6.63"/><rect class="cls-1" x="20.96" y="142.69" width="8.65" height="6.63"/><rect class="cls-1" x="104.92" y="156.78" width="22.02" height="6.63"/><rect class="cls-1" x="133.23" y="156.78" width="8.65" height="6.63"/><rect class="cls-2" x="3.31" y="7.16" width="163.37" height="114.68"/><path class="cls-1" d="M170,125.16H0V3.85H170ZM6.63,118.53H163.37V10.48H6.63Z"/><rect class="cls-2" x="77.18" y="121.84" width="15.64" height="44.31"/><polygon class="cls-1" points="96.13 166.15 89.5 166.15 89.5 125.16 80.5 125.16 80.5 166.15 73.87 166.15 73.87 118.53 96.13 118.53 96.13 166.15"/><rect class="cls-3" x="13.74" y="17.59" width="142.52" height="18.75"/><polygon class="cls-4" points="13.79 44.72 13.79 82.67 31.14 59.57 48.18 82.26 59.21 67.58 73.23 86.27 76.32 90.37 156.31 90.37 156.31 44.72 13.79 44.72"/><circle class="cls-2" cx="85.55" cy="62.1" r="8.02"/></svg>