<svg xmlns="http://www.w3.org/2000/svg" id="Layer_1" data-name="Layer 1" viewBox="0 0 170 170"><defs><style>.cls-1{fill:#fff;}.cls-2{fill:#282d33;}.cls-3{fill:#f38820;}.cls-4{fill:#7bb042;}.cls-5{fill:#3c81c3;}.cls-6{fill:#e33b34;}</style></defs><title>Serice Packages Icons</title><polygon class="cls-1" points="3.39 91.14 3.39 148.97 57.49 148.97 57.49 56.7 3.39 91.14"/><polygon class="cls-2" points="54.82 56.7 54.82 146.67 5.67 146.67 5.67 91.14 0 91.14 0 152.34 60.49 152.34 60.49 56.7 54.82 56.7"/><rect class="cls-1" x="112.9" y="21.21" width="54.11" height="127.76"/><path class="cls-2" d="M109.51,20.23V152.34H170V17.66H112.9Zm5.67,14.44V23.33h49.15V146.67H115.18v-112Z"/><polygon class="cls-1" points="57.75 60.07 111.86 21.04 111.86 148.79 57.75 148.79 57.75 60.07"/><path class="cls-2" d="M115.24,152.34V17.66l-60.49,39v95.64Zm-5.67-17v11.34H60.43v-90l49.15-33.37v112Z"/><path class="cls-2" d="M111.25,25.52c1.07-.92,2.25-1.77,3.27-2.74a2.4,2.4,0,0,1,1-1.11l-2.61-4L0,91.09l1.75,10.44c1.56-1.11,1.83-.83,3.08-2.29L5,94.58,97,34.78l4.75-3.09,9.51-6.18Z"/><rect class="cls-3" x="11.89" y="96.77" width="36.62" height="19.72"/><rect class="cls-2" x="11.89" y="122.52" width="36.62" height="5.67"/><rect class="cls-2" x="11.89" y="135.4" width="36.62" height="5.67"/><rect class="cls-4" x="121.4" y="30.38" width="36.6" height="35.32"/><rect class="cls-3" x="121.4" y="72.2" width="36.62" height="19.72"/><rect class="cls-2" x="121.4" y="96.77" width="36.62" height="5.67"/><rect class="cls-2" x="121.4" y="109.65" width="36.62" height="5.67"/><rect class="cls-2" x="121.4" y="122.52" width="36.62" height="5.67"/><rect class="cls-2" x="121.4" y="135.4" width="36.62" height="5.67"/><rect class="cls-1" x="125.18" y="45.03" width="29.04" height="5.67"/><rect class="cls-5" x="66.76" y="104.31" width="36.6" height="35.32"/><rect class="cls-6" x="66.73" y="78.08" width="36.62" height="19.72"/><rect class="cls-2" x="66.73" y="67.56" width="36.62" height="5.67"/><rect class="cls-2" x="80.21" y="54.68" width="23.15" height="5.67"/><rect class="cls-2" x="92.08" y="41.81" width="11.27" height="5.67"/><rect class="cls-1" x="70.53" y="119.3" width="29.04" height="5.67"/></svg>