<svg xmlns="http://www.w3.org/2000/svg" id="Layer_1" data-name="Layer 1" viewBox="0 0 170 170"><defs><style>.cls-1{fill:#282d33;}.cls-2{fill:#f38820;}.cls-3{fill:#e33b34;}</style></defs><title>Serice Packages Icons</title><path class="cls-1" d="M78.9,40.63a6.64,6.64,0,0,0-4.75-2H6.71A6.63,6.63,0,0,0,0,45.38V94.62a6.63,6.63,0,0,0,6.71,6.71H74.13a6.8,6.8,0,0,0,6.71-6.87V45.39A6.65,6.65,0,0,0,78.9,40.63ZM76,45.38V94.69a1.84,1.84,0,0,1-1.87,1.63H6.71a1.84,1.84,0,0,1-1.88-1.88V45.38A1.84,1.84,0,0,1,6.71,43.5H74.13A1.84,1.84,0,0,1,76,45.38Z"/><path class="cls-1" d="M9.45,49.47V68.62H28.59V49.47Zm5,14.33V54.46h9.34V63.8Z"/><rect class="cls-1" x="11.13" y="75.43" width="36.5" height="4.98"/><rect class="cls-1" x="11.13" y="86.05" width="36.5" height="4.98"/><path class="cls-1" d="M168.06,40.63a6.64,6.64,0,0,0-4.75-2H95.86a6.63,6.63,0,0,0-6.71,6.71V94.62a6.63,6.63,0,0,0,6.71,6.71h67.43A6.8,6.8,0,0,0,170,94.45V45.39A6.65,6.65,0,0,0,168.06,40.63Zm-2.88,4.75V94.69a1.84,1.84,0,0,1-1.87,1.63H95.86A1.84,1.84,0,0,1,94,94.44V45.38a1.84,1.84,0,0,1,1.88-1.88h67.43A1.84,1.84,0,0,1,165.18,45.38Z"/><path class="cls-1" d="M98.61,49.47V68.62h19.15V49.47Zm5,14.33V54.46h9.34V63.8Z"/><rect class="cls-1" x="100.29" y="75.43" width="36.5" height="4.98"/><rect class="cls-1" x="100.29" y="86.05" width="36.5" height="4.98"/><path class="cls-2" d="M123.48,70.63a6.64,6.64,0,0,0-4.75-2H51.28a6.63,6.63,0,0,0-6.71,6.71v49.23a6.63,6.63,0,0,0,6.71,6.71h67.43a6.8,6.8,0,0,0,6.71-6.87V75.39A6.65,6.65,0,0,0,123.48,70.63Z"/><path class="cls-2" d="M123.48,70.63a6.64,6.64,0,0,0-4.75-2H51.28a6.63,6.63,0,0,0-6.71,6.71v49.23a6.63,6.63,0,0,0,6.71,6.71h67.43a6.8,6.8,0,0,0,6.71-6.87V75.39A6.65,6.65,0,0,0,123.48,70.63Zm-2.88,4.75v49.31a1.84,1.84,0,0,1-1.87,1.63H51.28a1.84,1.84,0,0,1-1.88-1.88V75.38a1.84,1.84,0,0,1,1.88-1.88h67.43A1.84,1.84,0,0,1,120.6,75.38Z"/><path class="cls-3" d="M54,79.47V98.62H73.17V79.47ZM59,93.8V84.46h9.34V93.8Z"/><rect class="cls-1" x="55.71" y="105.43" width="36.5" height="4.98"/><rect class="cls-1" x="55.71" y="116.05" width="36.5" height="4.98"/></svg>