<svg xmlns="http://www.w3.org/2000/svg" id="Layer_1" data-name="Layer 1" viewBox="0 0 170 170"><defs><style>.cls-1{fill:#282d33;}.cls-2{fill:#e33b34;}.cls-3{fill:#7bb042;}.cls-4{fill:#3c81c3;}</style></defs><title>Serice Packages Icons</title><path class="cls-1" d="M51.9,47.74a6.64,6.64,0,0,0-4.75-2H6.71A6.63,6.63,0,0,0,0,52.49V74.72a6.63,6.63,0,0,0,6.71,6.71H47.13a6.8,6.8,0,0,0,6.71-6.87V52.49A6.65,6.65,0,0,0,51.9,47.74ZM49,52.49V74.8a1.83,1.83,0,0,1-1.87,1.63H6.71a1.84,1.84,0,0,1-1.88-1.88V52.49a1.84,1.84,0,0,1,1.88-1.88H47.13A1.84,1.84,0,0,1,49,52.49Z"/><path class="cls-1" d="M27,54H9.88V73.18H27ZM14.86,68.36V59H22.2v9.34Z"/><rect class="cls-1" x="31.51" y="60.03" width="13.2" height="4.98"/><rect class="cls-1" x="31.51" y="68.41" width="13.2" height="4.98"/><path class="cls-1" d="M51.9,7a6.64,6.64,0,0,0-4.75-2H6.71A6.63,6.63,0,0,0,0,11.71V33.94a6.63,6.63,0,0,0,6.71,6.71H47.13a6.8,6.8,0,0,0,6.71-6.87V11.71A6.65,6.65,0,0,0,51.9,7ZM49,11.71V34a1.83,1.83,0,0,1-1.87,1.63H6.71a1.84,1.84,0,0,1-1.88-1.88V11.71A1.84,1.84,0,0,1,6.71,9.82H47.13A1.84,1.84,0,0,1,49,11.71Z"/><path class="cls-1" d="M27,13.25H9.88V32.39H27ZM14.86,27.57V18.23H22.2v9.34Z"/><rect class="cls-1" x="31.51" y="19.25" width="13.2" height="4.98"/><rect class="cls-1" x="31.51" y="27.63" width="13.2" height="4.98"/><path class="cls-2" d="M51.9,131.31a6.64,6.64,0,0,0-4.75-2H6.71A6.63,6.63,0,0,0,0,136.06v22.23A6.63,6.63,0,0,0,6.71,165H47.13a6.8,6.8,0,0,0,6.71-6.87V136.07A6.65,6.65,0,0,0,51.9,131.31Z"/><path class="cls-1" d="M27,137.61H9.88v19.15H27ZM14.86,151.93v-9.34H22.2v9.34Z"/><rect class="cls-1" x="31.51" y="143.61" width="13.2" height="4.98"/><rect class="cls-1" x="31.51" y="151.99" width="13.2" height="4.98"/><path class="cls-1" d="M51.9,89.52a6.64,6.64,0,0,0-4.75-2H6.71A6.63,6.63,0,0,0,0,94.28v22.23a6.63,6.63,0,0,0,6.71,6.71H47.13a6.8,6.8,0,0,0,6.71-6.87V94.28A6.65,6.65,0,0,0,51.9,89.52ZM49,94.28v22.31a1.83,1.83,0,0,1-1.87,1.63H6.71a1.84,1.84,0,0,1-1.88-1.88V94.28a1.84,1.84,0,0,1,1.88-1.88H47.13A1.84,1.84,0,0,1,49,94.28Z"/><path class="cls-1" d="M27,95.82H9.88V115H27ZM14.86,110.14V100.8H22.2v9.34Z"/><rect class="cls-1" x="31.51" y="101.82" width="13.2" height="4.98"/><rect class="cls-1" x="31.51" y="110.2" width="13.2" height="4.98"/><rect class="cls-1" x="89.59" y="60.03" width="13.2" height="4.98"/><rect class="cls-1" x="89.59" y="68.41" width="13.2" height="4.98"/><rect class="cls-1" x="89.59" y="19.25" width="13.2" height="4.98"/><rect class="cls-1" x="89.59" y="27.63" width="13.2" height="4.98"/><rect class="cls-1" x="89.59" y="143.61" width="13.2" height="4.98"/><rect class="cls-1" x="89.59" y="151.99" width="13.2" height="4.98"/><path class="cls-1" d="M110,47.74a6.64,6.64,0,0,0-4.75-2H64.79a6.63,6.63,0,0,0-6.71,6.71V74.72a6.63,6.63,0,0,0,6.71,6.71h40.43a6.8,6.8,0,0,0,6.71-6.87V52.49A6.65,6.65,0,0,0,110,47.74Zm-2.88,4.75V74.8a1.83,1.83,0,0,1-1.87,1.63H64.79a1.84,1.84,0,0,1-1.88-1.88V52.49a1.84,1.84,0,0,1,1.88-1.88h40.43A1.84,1.84,0,0,1,107.1,52.49Z"/><path class="cls-3" d="M85.1,54H68V73.18H85.1ZM72.94,68.36V59h7.34v9.34Z"/><path class="cls-1" d="M110,7a6.64,6.64,0,0,0-4.75-2H64.79a6.63,6.63,0,0,0-6.71,6.71V33.94a6.63,6.63,0,0,0,6.71,6.71h40.43a6.8,6.8,0,0,0,6.71-6.87V11.71A6.65,6.65,0,0,0,110,7Zm-2.88,4.75V34a1.83,1.83,0,0,1-1.87,1.63H64.79a1.84,1.84,0,0,1-1.88-1.88V11.71a1.84,1.84,0,0,1,1.88-1.88h40.43A1.84,1.84,0,0,1,107.1,11.71Z"/><path class="cls-1" d="M85.1,13.25H68V32.39H85.1ZM72.94,27.57V18.23h7.34v9.34Z"/><path class="cls-1" d="M110,131.31a6.64,6.64,0,0,0-4.75-2H64.79a6.63,6.63,0,0,0-6.71,6.71v22.23A6.63,6.63,0,0,0,64.79,165h40.43a6.8,6.8,0,0,0,6.71-6.87V136.07A6.65,6.65,0,0,0,110,131.31Zm-2.88,4.75v22.31a1.83,1.83,0,0,1-1.87,1.63H64.79a1.84,1.84,0,0,1-1.88-1.88V136.06a1.84,1.84,0,0,1,1.88-1.88h40.43A1.84,1.84,0,0,1,107.1,136.06Z"/><path class="cls-1" d="M85.1,137.61H68v19.15H85.1ZM72.94,151.93v-9.34h7.34v9.34Z"/><path class="cls-1" d="M110,89.52a6.64,6.64,0,0,0-4.75-2H64.79a6.63,6.63,0,0,0-6.71,6.71v22.23a6.63,6.63,0,0,0,6.71,6.71h40.43a6.8,6.8,0,0,0,6.71-6.87V94.28A6.65,6.65,0,0,0,110,89.52Zm-2.88,4.75v22.31a1.83,1.83,0,0,1-1.87,1.63H64.79a1.84,1.84,0,0,1-1.88-1.88V94.28a1.84,1.84,0,0,1,1.88-1.88h40.43A1.84,1.84,0,0,1,107.1,94.28Z"/><path class="cls-1" d="M85.1,95.82H68V115H85.1ZM72.94,110.14V100.8h7.34v9.34Z"/><rect class="cls-1" x="89.59" y="101.82" width="13.2" height="4.98"/><rect class="cls-1" x="89.59" y="110.2" width="13.2" height="4.98"/><path class="cls-4" d="M168.06,47.74a6.64,6.64,0,0,0-4.75-2H122.87a6.63,6.63,0,0,0-6.71,6.71V74.72a6.63,6.63,0,0,0,6.71,6.71h40.43A6.8,6.8,0,0,0,170,74.56V52.49A6.65,6.65,0,0,0,168.06,47.74Z"/><path class="cls-1" d="M143.18,54H126V73.18h17.15ZM131,68.36V59h7.34v9.34Z"/><rect class="cls-1" x="147.67" y="60.03" width="13.2" height="4.98"/><rect class="cls-1" x="147.67" y="68.41" width="13.2" height="4.98"/><path class="cls-1" d="M168.06,7a6.64,6.64,0,0,0-4.75-2H122.87a6.63,6.63,0,0,0-6.71,6.71V33.94a6.63,6.63,0,0,0,6.71,6.71h40.43A6.8,6.8,0,0,0,170,33.77V11.71A6.65,6.65,0,0,0,168.06,7Zm-2.88,4.75V34a1.83,1.83,0,0,1-1.87,1.63H122.87A1.84,1.84,0,0,1,121,33.76V11.71a1.84,1.84,0,0,1,1.88-1.88h40.43A1.84,1.84,0,0,1,165.18,11.71Z"/><path class="cls-1" d="M143.18,13.25H126V32.39h17.15ZM131,27.57V18.23h7.34v9.34Z"/><rect class="cls-1" x="147.67" y="19.25" width="13.2" height="4.98"/><rect class="cls-1" x="147.67" y="27.63" width="13.2" height="4.98"/><path class="cls-1" d="M168.06,131.31a6.64,6.64,0,0,0-4.75-2H122.87a6.63,6.63,0,0,0-6.71,6.71v22.23a6.63,6.63,0,0,0,6.71,6.71h40.43a6.8,6.8,0,0,0,6.71-6.87V136.07A6.65,6.65,0,0,0,168.06,131.31Zm-2.88,4.75v22.31a1.83,1.83,0,0,1-1.87,1.63H122.87a1.84,1.84,0,0,1-1.88-1.88V136.06a1.84,1.84,0,0,1,1.88-1.88h40.43A1.84,1.84,0,0,1,165.18,136.06Z"/><path class="cls-1" d="M143.18,137.61H126v19.15h17.15ZM131,151.93v-9.34h7.34v9.34Z"/><rect class="cls-1" x="147.67" y="143.61" width="13.2" height="4.98"/><rect class="cls-1" x="147.67" y="151.99" width="13.2" height="4.98"/><path class="cls-1" d="M168.06,89.52a6.64,6.64,0,0,0-4.75-2H122.87a6.63,6.63,0,0,0-6.71,6.71v22.23a6.63,6.63,0,0,0,6.71,6.71h40.43a6.8,6.8,0,0,0,6.71-6.87V94.28A6.65,6.65,0,0,0,168.06,89.52Zm-2.88,4.75v22.31a1.83,1.83,0,0,1-1.87,1.63H122.87a1.84,1.84,0,0,1-1.88-1.88V94.28a1.84,1.84,0,0,1,1.88-1.88h40.43A1.84,1.84,0,0,1,165.18,94.28Z"/><path class="cls-1" d="M143.18,95.82H126V115h17.15ZM131,110.14V100.8h7.34v9.34Z"/><rect class="cls-1" x="147.67" y="101.82" width="13.2" height="4.98"/><rect class="cls-1" x="147.67" y="110.2" width="13.2" height="4.98"/></svg>