<svg xmlns="http://www.w3.org/2000/svg" id="Layer_1" data-name="Layer 1" viewBox="0 0 170 170"><defs><style>.cls-1{fill:#fff;}.cls-2{fill:#282d33;}.cls-3{fill:#3c81c3;}.cls-4{fill:#7bb042;}.cls-5{fill:#69cadf;}.cls-6{fill:#e33b34;}</style></defs><title>Serice Packages Icons</title><path class="cls-1" d="M81.6,57,68.42,70.15,93.9,95.62a12.42,12.42,0,0,0,17.57,0l4.39-4.39Z"/><path class="cls-2" d="M102.68,102.78a15.85,15.85,0,0,1-11.27-4.67l-28-28L81.6,52l39.24,39.24L114,98.11A15.83,15.83,0,0,1,102.68,102.78ZM73.39,70.15l23,23a8.91,8.91,0,0,0,12.59,0l1.91-1.91L81.6,61.94Z"/><path class="cls-1" d="M73.42,65.86V84.5h36a12.42,12.42,0,0,0,12.42-12.42V65.86Z"/><path class="cls-2" d="M109.45,88H69.9V62.35h55.49v9.73A16,16,0,0,1,109.45,88ZM76.94,81h32.52a8.92,8.92,0,0,0,8.91-8.91v-2.7H76.94Z"/><path class="cls-1" d="M78.33,160.82l-4.17-7.26-2.75-89c-2.36-3.5,9.89-30.49,7.78-26.83L33.84,81.88c-2.11,3.66-.66,6.22.45,13l10.65,67.28Z"/><path class="cls-2" d="M41.47,162.68,30.82,95.4c-.26-1.55-.53-2.89-.78-4.07-.84-4.06-1.51-7.27.76-11.21L31,79.7,76.46,35.47A3.59,3.59,0,0,1,81,34.22c3,1.46,2.13,3.72.35,8.23C76.81,53.81,74.56,60.73,74.61,63l.28.42,2.75,89.14,3.73,6.5-6.1,3.5-4.61-8L67.92,65.33c-.8-2.46-.1-6.47,2.62-14.27L36.69,84c-.66,1.36-.46,2.5.24,5.87.26,1.26.56,2.69.84,4.38l10.66,67.3Z"/><path class="cls-3" d="M35.18,0h100.2a5.74,5.74,0,0,1,5.74,5.74V64.06a5.74,5.74,0,0,1-5.74,5.74H35.18a5.74,5.74,0,0,1-5.74-5.74V5.73A5.73,5.73,0,0,1,35.18,0Z"/><rect class="cls-2" x="38.14" y="35.4" width="55.11" height="7.03"/><rect class="cls-2" x="38.14" y="49.51" width="33.95" height="7.03"/><rect class="cls-1" x="42.24" y="9.44" width="18.51" height="17.31"/><path class="cls-4" d="M64.27,30.26H38.73V5.92H64.27Zm-18.51-7H57.24V13H45.76Z"/><path class="cls-1" d="M63.68,164.51c8.39-6.07,16.21-12.32,20.59-27,4.29-14.34,4.52-26.29,1.09-35.86L97,62.95a8.64,8.64,0,0,0-5.8-10.75l-3.31-1A8.64,8.64,0,0,0,77.09,57l-20,48.56Z"/><path class="cls-2" d="M65.74,167.36l-4.12-5.7c8.51-6.15,15.33-11.91,19.29-25.14s4.38-24.66,1.15-33.67l-.39-1.09L93.59,61.94a5.13,5.13,0,0,0-3.44-6.37l-3.31-1A5.12,5.12,0,0,0,80.46,58l-.12.33-20,48.56-6.5-2.68,20-48.41a12.16,12.16,0,0,1,15.08-8l3.31,1A12.17,12.17,0,0,1,100.33,64L89.06,101.6c3.33,10.24,2.86,22.66-1.41,36.94C83.06,153.85,75,160.65,65.74,167.36Z"/><rect class="cls-5" x="32.54" y="145.72" width="67.92" height="24.28"/><rect class="cls-6" x="32.54" y="145.72" width="67.92" height="24.28"/><rect class="cls-2" x="86.76" y="154.98" width="7.03" height="6.45"/></svg>