<?xml version="1.0" encoding="utf-8"?>
<!-- Generator: Adobe Illustrator 21.1.0, SVG Export Plug-In . SVG Version: 6.00 Build 0)  -->
<svg version="1.1" id="Layer_1" xmlns="http://www.w3.org/2000/svg" xmlns:xlink="http://www.w3.org/1999/xlink" x="0px" y="0px"
	 viewBox="0 0 69 69" style="enable-background:new 0 0 69 69;" xml:space="preserve">
<style type="text/css">
	.st0{fill:#FFFFFF;}
	.st1{fill:#E33B34;}
	.st2{fill:#3C81C3;}
	.st3{fill:#282D33;}
	.st4{fill:#F38820;}
	.st5{fill:#7BB042;}
	.st6{fill:#F16227;}
</style>
<circle class="st0" cx="34.5" cy="34.5" r="34.5"/>
<g>
	<g>
		<path class="st3" d="M49.6,33.8h-1.9v-9c0-7.3-5.9-13.2-13.2-13.2c-7.3,0-13.2,5.9-13.2,13.2v9h-1.9v-9c0-8.3,6.8-15.1,15.1-15.1
			c8.3,0,15.1,6.8,15.1,15.1V33.8z"/>
	</g>
	<path class="st1" d="M50,35.2c0,1.6-1.3,2.9-2.9,2.9h-0.2c-1.6,0-2.9-1.3-2.9-2.9v-5.4c0-1.6,1.3-2.9,2.9-2.9H47
		c1.6,0,2.9,1.3,2.9,2.9V35.2z"/>
	<g>
		<path class="st0" d="M45.8,27v6.9c0,6.2-5.1,11.3-11.3,11.3l0,0c-6.2,0-11.3-5.1-11.3-11.3v-4.8l5.1-8.1l17.5,2.4V27z"/>
		<path class="st3" d="M34.5,46.1c-6.7,0-12.2-5.5-12.2-12.2v-5l5.6-8.8l18.1,2.5l-0.3,1.9L28.8,22l-4.6,7.3v4.5
			c0,5.7,4.6,10.3,10.3,10.3c5.7,0,10.3-4.6,10.3-10.3V27h1.9v6.9C46.7,40.6,41.2,46.1,34.5,46.1z"/>
	</g>
	<g>
		<path class="st2" d="M23.2,24.8v4.3c4-0.1,7.2-4.3,7.2-9.4c0-1.8-0.4-3.5-1.1-4.9C25.7,16.7,23.2,20.4,23.2,24.8z"/>
		<path class="st3" d="M22.3,30.1v-5.3c0-4.6,2.5-8.7,6.6-10.9l0.9-0.5l0.4,0.9c0.8,1.6,1.2,3.4,1.2,5.3c0,5.7-3.6,10.2-8.1,10.4
			L22.3,30.1z M28.9,16.1c-2.9,1.9-4.7,5.1-4.7,8.7V28c3-0.7,5.3-4.2,5.3-8.3C29.4,18.5,29.2,17.3,28.9,16.1z"/>
	</g>
	<g>
		<path class="st0" d="M18.4,57.3v-4.6c0-2.5,2.3-4.5,5-4.5h22.2c2.8,0,5.1,2,5.1,4.5v4.6H18.4z"/>
		<path class="st3" d="M51.6,57.3h-1.9v-4.6c0-1.9-1.8-3.5-4.1-3.5H23.4c-2.3,0-4.1,1.6-4.1,3.5v4.6h-1.9v-4.6c0-3,2.7-5.4,6-5.4
			h22.2c3.3,0,6,2.4,6,5.4V57.3z"/>
	</g>
	<g>
		<rect x="33.7" y="51.3" class="st3" width="1.9" height="1.9"/>
	</g>
	<g>
		<rect x="33.7" y="55.4" class="st3" width="1.9" height="1.9"/>
	</g>
	<path class="st1" d="M24.7,35.2c0,1.6-1.3,2.9-2.9,2.9h-0.2c-1.6,0-2.9-1.3-2.9-2.9v-5.4c0-1.6,1.3-2.9,2.9-2.9h0.2
		c1.6,0,2.9,1.3,2.9,2.9V35.2z"/>
	<g>
		<rect x="34.3" y="31.1" class="st3" width="1.9" height="5.9"/>
	</g>
	<g>
		<path class="st3" d="M21.3,33.8h-1.9v-9c0-8.3,6.8-15.1,15.1-15.1v1.9c-7.3,0-13.2,5.9-13.2,13.2V33.8z"/>
	</g>
	<g>
		<path class="st5" d="M34.5,13.5c-3,0-5.7,1.2-7.8,3.1c0.2,7.3,7.2,13.2,15.7,13.2c1.1,0,2.3-0.1,3.3-0.3v-4.7
			C45.8,18.6,40.7,13.5,34.5,13.5z"/>
		<path class="st3" d="M42.4,30.8c-9.1,0-16.4-6.2-16.7-14.1l0-0.4l0.3-0.3c2.3-2.2,5.3-3.4,8.4-3.4c6.7,0,12.2,5.5,12.2,12.2v5.5
			L46,30.4C44.8,30.7,43.6,30.8,42.4,30.8z M27.7,17c0.4,6.6,7,11.8,14.7,11.8c0.8,0,1.6-0.1,2.4-0.2v-3.9c0-5.7-4.6-10.3-10.3-10.3
			C32,14.5,29.6,15.4,27.7,17z"/>
	</g>
	<g>
		<path class="st3" d="M45.7,42.8h-9.4v-1.9h9.4c0.5,0,0.9-0.4,0.9-0.9v-2.3h1.9v2.3C48.6,41.5,47.3,42.8,45.7,42.8z"/>
	</g>
</g>
</svg>
