<?xml version="1.0" encoding="utf-8"?>
<!-- Generator: Adobe Illustrator 21.1.0, SVG Export Plug-In . SVG Version: 6.00 Build 0)  -->
<svg version="1.1" id="Layer_1" xmlns="http://www.w3.org/2000/svg" xmlns:xlink="http://www.w3.org/1999/xlink" x="0px" y="0px"
	 viewBox="0 0 69 69" style="enable-background:new 0 0 69 69;" xml:space="preserve">
<style type="text/css">
	.st0{fill:#FFFFFF;}
	.st1{fill:#E33B34;}
	.st2{fill:#3C81C3;}
	.st3{fill:#282D33;}
	.st4{fill:#F38820;}
	.st5{fill:#7BB042;}
	.st6{fill:#F16227;}
</style>
<circle class="st0" cx="34.5" cy="34.5" r="34.5"/>
<g>
	<g>
		<path class="st3" d="M31.1,37.1h-1.9v-0.7c-0.8-0.3-1.6-0.8-2.3-1.4l-0.1-0.1l-6.4-7.4v-8.9l-0.1,0l0.1-1.1v-0.6l0,0l0-0.1h2
			c2.3,0,4.2,1.9,4.2,4.2v5.4h-1.9V21c0-1.3-1-2.3-2.3-2.3h-0.1v3l0.1,0.7l-0.1,0v4.3l5.9,6.8c0.6,0.6,1.3,0.9,2.1,1.1l0.7,0.2V37.1
			z"/>
	</g>
	<g>
		<path class="st0" d="M13,21.6h-1.6c-0.2,0-0.4,0.2-0.4,0.4v2.6c0,0.2,0.2,0.4,0.4,0.4H13V21.6z"/>
		<path class="st3" d="M13,25.9h-1.6c-0.7,0-1.3-0.6-1.3-1.3V22c0-0.7,0.6-1.3,1.3-1.3H13v1.9h-1V24h1V25.9z"/>
	</g>
	<g>
		<polygon class="st3" points="53.2,25.9 52.3,25.9 52.3,24 52.8,24 54.4,23.3 52.8,22.6 52.3,22.6 52.3,20.7 53.2,20.7 59,23.3 		
			"/>
	</g>
	<rect x="42.9" y="20.7" class="st2" width="8.1" height="5.2"/>
	<rect x="14.3" y="20.7" class="st2" width="10.6" height="5.2"/>
	<g>
		<path class="st0" d="M21.5,26.2C21.5,26.2,21.5,26.2,21.5,26.2v1l6.1,7.1c0.7,0.7,1.6,1.2,2.6,1.4v1.4L21.5,26.2z"/>
		<path class="st3" d="M31.1,37.1h-1.9v-0.7c-0.8-0.3-1.6-0.8-2.3-1.4l-0.1-0.1l-6.4-7.4l0-2l0.6-0.2l0.3,0.9v0v-0.9l0.3,0.2
			l0.1-0.2l0.6,0.2v1.3l5.9,6.8c0.6,0.6,1.3,0.9,2.1,1.1l0.7,0.2V37.1z"/>
	</g>
	<g>
		<path class="st3" d="M41.7,37.1h-1.9v-2.8l0.4-0.3c1.2-0.9,1.9-2.3,1.9-3.8v-9.9L42,18.2c0-0.7-0.5-1.2-1.2-1.2
			c-1.2,0-1.2,0.4-1.2,0.6v0h-1.9v-0.5c0-0.6-0.5-1.2-1.2-1.2c-0.6,0-1.2,0.5-1.2,1.2h-1.9V16c0-0.6-0.5-1.2-1.2-1.2
			c-0.6,0-1.2,0.5-1.2,1.2v1.2h-1.9c0-0.4-0.5-1.1-1.3-1.1c-0.7,0-1.2,0.6-1.2,1.2v9h-1.9v-9c0-1.7,1.4-3.1,3.1-3.1
			c0.6,0,1.1,0.2,1.6,0.4c0.5-1,1.5-1.7,2.7-1.7c1.1,0,2.1,0.6,2.6,1.5c0.5-0.3,1-0.4,1.6-0.4c1.1,0,2,0.5,2.6,1.4
			c0.4-0.2,1-0.3,1.7-0.3c1.7,0,3.1,1.4,3.1,3.1l0.1,2.1l0,9.9c0,1.9-0.8,3.7-2.3,5V37.1z"/>
	</g>
	<g>
		<rect x="28.9" y="38.7" class="st6" width="17.5" height="17.4"/>
		<rect x="28.9" y="38.7" class="st1" width="17.5" height="17.4"/>
	</g>
	<g>
		<rect x="42.8" y="41.7" class="st3" width="1.9" height="1.9"/>
	</g>
</g>
</svg>
