<svg id="Layer_1" data-name="Layer 1" xmlns="http://www.w3.org/2000/svg" viewBox="0 0 170 170"><defs><style>.cls-1{fill:#7bb042;}.cls-2{fill:#fff;}.cls-3{fill:#282d33;}.cls-4{fill:#e33b34;}.cls-5{fill:#f38820;}</style></defs><title>Serice Packages Icons</title><rect class="cls-1" x="23.02" y="15.51" width="41.96" height="35.28"/><rect class="cls-2" x="30.17" y="21.87" width="8.43" height="7.63"/><rect class="cls-3" x="30.17" y="35.7" width="23.52" height="7.63"/><polygon class="cls-3" points="125.99 36.5 125.99 162.37 15.37 162.37 15.37 144.57 15.37 142.48 15.37 7.89 97.38 7.89 97.38 0.26 7.74 0.26 7.74 142.48 7.74 144.57 7.74 170 133.62 170 133.62 36.5 125.99 36.5"/><polygon class="cls-4" points="103.22 31.25 134.46 31.25 103.22 0 103.22 31.25"/><path class="cls-2" d="M145.22,156.7v6.39a1.43,1.43,0,0,0,1.45,1.42H157a1.44,1.44,0,0,0,1.46-1.42V156.7Z"/><path class="cls-3" d="M157,168.33H146.67a5.26,5.26,0,0,1-5.27-5.24V156.7H149v4h5.59v-4h7.63v6.39A5.26,5.26,0,0,1,157,168.33Z"/><polygon class="cls-3" points="162.23 28.46 154.6 28.46 154.6 26.51 151.82 20.36 149.03 26.51 149.03 28.46 141.4 28.46 141.4 24.87 151.82 1.89 162.23 24.87 162.23 28.46"/><rect class="cls-2" x="145.34" y="29.92" width="12.98" height="103.28"/><path class="cls-3" d="M154.51,33.74v95.65h-5.35V33.74Zm7.63-7.63H141.52V137h20.61V26.11Z"/><rect class="cls-5" x="141.52" y="142.08" width="20.61" height="14.64"/></svg>