<svg id="Layer_1" data-name="Layer 1" xmlns="http://www.w3.org/2000/svg" viewBox="0 0 170 170"><defs><style>.cls-1{fill:#f38820;}.cls-2{fill:#3c81c3;}.cls-3{fill:#7bb042;}.cls-4{fill:#e33b34;}.cls-5{fill:#fff;}.cls-6{fill:#282d33;}</style></defs><title>Serice Packages Icons</title><rect class="cls-1" x="9.29" width="63.34" height="3.64"/><rect class="cls-2" x="41.51" width="63.34" height="3.64"/><rect class="cls-3" x="68.81" width="63.34" height="3.64"/><circle class="cls-2" cx="53.64" cy="62.6" r="27.52"/><circle class="cls-3" cx="90.17" cy="62.6" r="27.52"/><circle class="cls-4" cx="72.63" cy="92.82" r="27.52"/><path class="cls-5" d="M100.48,113.53l-25.77-25s-2.49-19-1.45-20.24,7.79-4.67,9.65,0S90.7,80.83,90.7,80.83L100,90.11l10.1-8.35L98.69,61.93,85.82,64.11l-6.33-3.74,2.18-5.29L103.26,47l35.09,18.32V84.46s4.26,23,4.26,25.33,10.59,31.66,10.59,31.66L124,149.65l-7.68-24.5Z"/><path class="cls-6" d="M114.43,148.18l4.46,15.61H16.82V27.3H126V56l-7.72-4.5A30,30,0,0,0,71.42,39.64,30,30,0,1,0,41.49,90.77c0,.68-.1,1.36-.1,2.05a30,30,0,0,0,53.29,18.92L96.94,114l18.53,15.89L121,146.53l-6.6,1.65ZM5.9,13.65a8.2,8.2,0,0,1,8.19-8.19H117.9a13.37,13.37,0,0,0,0,16.38H14.09A8.2,8.2,0,0,1,5.9,13.65Zm131,0V62.36l-5.46-3.19V21.84h-2.73a8.19,8.19,0,1,1,8.19-8.19ZM149,76.4a1.49,1.49,0,0,1,.15,1.28,1.51,1.51,0,0,1-1.65,1l-5.74-.82.51-3,5.66.81a1.49,1.49,0,0,1,1.08.7Zm-42.73,5-5,5L92.68,80.1l-2-4L104.29,78l1.94,3.4ZM61.5,70.35a29.63,29.63,0,0,0,6,11.7,24.4,24.4,0,0,1-19.95,4.85A24.37,24.37,0,0,1,61.5,70.35Zm-1-7.56c0,.67.07,1.34.11,2A29.8,29.8,0,0,0,42.38,85.24,24.55,24.55,0,1,1,67.52,43.53a29.87,29.87,0,0,0-7,19.26Zm15.76-5.35a.73.73,0,0,0,0,.08,8.27,8.27,0,0,0-.17,2.66l-8.8,2.93c-.42.06-.85.1-1.26.18,0-.17,0-.34,0-.51a24.44,24.44,0,0,1,5.45-15.4,24.38,24.38,0,0,1,4.85,10.06Zm28.19-14-23,8.38a8.19,8.19,0,0,0-1,.5,29.88,29.88,0,0,0-5.11-8.75A24.39,24.39,0,0,1,107.7,45.3l-3.25-1.9ZM67.85,68.54l1.82,1.82a8.85,8.85,0,0,0-.08,2.51L70,76.26a24.28,24.28,0,0,1-3.32-7.55c.38-.07.77-.11,1.15-.17Zm18.65-.8a8.7,8.7,0,0,0-.51-.89l38,5.43,12.83,1.83-.51,3L87.71,70.15,86.5,67.74Zm47.87-.56.12,1.08-16.81-2.4-15.31-2.19-2.22-3.89L88.61,61.7,86,61.33l-4.31-.62a2.8,2.8,0,0,1-.17-1.87,2.74,2.74,0,0,1,1.76-1.94l20.63-7.5,30.47,17.78ZM46.88,92.3a29.63,29.63,0,0,0,24.36-6.24l.32,2.57,19.23,19.22a24.52,24.52,0,0,1-43.93-15c0-.17,0-.34,0-.52Zm103.66,46.86-24.19,6-6.16-18.48L100.65,110,76.74,86.08,75,72.19a3.51,3.51,0,0,1,.1-1.34l.13-.34a3.56,3.56,0,0,1,1.26-1.62,3.71,3.71,0,0,1,4.64.59,3.43,3.43,0,0,1,.49.71l2.48,5h0l4.27,8.54,13.33,10L113,82.35,111.14,79l24.95,3.57,3.6,32.37,10.85,24.2ZM163.3,136l-7.38,1.85-10.86-23.89-3.39-30.54,5,.72a6.81,6.81,0,0,0,1,.07,7,7,0,0,0,1-13.88l-6.27-.9V13.65A13.66,13.66,0,0,0,128.75,0H14.09a13.65,13.65,0,0,0-2.73,27V169.25H120.45l.21.75,5.25-1.5-4.69-16.4,19.25-4.81,17.74-4.44h0l1.5-.37,4.66,14,5.18-1.73L163.3,136Z"/><path class="cls-1" d="M149,76.4a1.49,1.49,0,0,1,.15,1.28,1.51,1.51,0,0,1-1.65,1l-5.74-.82.51-3,5.66.81a1.49,1.49,0,0,1,1.08.7Z"/><path class="cls-5" d="M86.5,67.74a8.7,8.7,0,0,0-.51-.89l38,5.43,12.83,1.83-.51,3L87.71,70.15,86.5,67.74Z"/></svg>