<svg id="Layer_1" data-name="Layer 1" xmlns="http://www.w3.org/2000/svg" xmlns:xlink="http://www.w3.org/1999/xlink" viewBox="0 0 170 170"><defs><style>.cls-1{fill:#282d33;}.cls-2{fill:#e33b34;}.cls-3{fill:#fefefe;}.cls-4{fill:#3a559f;}.cls-5{fill:#fff;}.cls-6{fill:url(#linear-gradient);}.cls-7{fill:#0077b7;}.cls-8{fill:#55acef;}.cls-9{opacity:0.2;}.cls-10{fill:#4d4d4d;}</style><linearGradient id="linear-gradient" x1="88.87" y1="79.52" x2="72.4" y2="63.04" gradientUnits="userSpaceOnUse"><stop offset="0" stop-color="#fec053"/><stop offset="0.33" stop-color="#f2203e"/><stop offset="0.65" stop-color="#b729a8"/><stop offset="1" stop-color="#5342d6"/></linearGradient></defs><path class="cls-1" d="M126.65,29.29a1.76,1.76,0,0,1,1.11,1.92c-.05.83,0,1.65,0,2.48a1.48,1.48,0,0,1-1.45,1.55,1.5,1.5,0,0,1-1.52-1.55c0-.84,0-1.68,0-2.52A1.71,1.71,0,0,1,126,29.29Z"/><path class="cls-1" d="M95,65.12a4.58,4.58,0,0,1,1.46-3.31c2.48-2.46,4.94-4.94,7.41-7.4a31.27,31.27,0,0,0,7.84-12.8c.33-1,.6-2.1.84-3.16a.74.74,0,0,0-.1-.56,4.46,4.46,0,0,1,7-5.39q8.43,8.4,16.81,16.82a4.47,4.47,0,0,1-2.84,7.62,4.14,4.14,0,0,1-2.52-.59.75.75,0,0,0-.55-.1A31.55,31.55,0,0,0,119.1,61c-.33.22-.35.34-.06.6a4.56,4.56,0,0,1,1.67,4,4.61,4.61,0,0,1-1.46,2.85c-.29.27-.76.56-.77.85s.48.58.76.86c.81.82,1.67,1.61,2.44,2.47A4.45,4.45,0,0,1,119.5,80a4.36,4.36,0,0,1-4.39-1.28c-2.27-2.27-4.55-4.53-6.8-6.82-.36-.36-.55-.39-.9,0a5,5,0,0,1-2.82,1.82,4.2,4.2,0,0,1-3.87-1c-1.59-1.5-3.12-3.06-4.63-4.63A4.11,4.11,0,0,1,95,65.12Z"/><path class="cls-1" d="M136.68,33.54a1.64,1.64,0,0,1-.46,1.31c-1,1-1.93,1.95-2.91,2.9a1.49,1.49,0,1,1-2.11-2.09q1.45-1.48,2.94-2.94a1.42,1.42,0,0,1,1.64-.33A1.4,1.4,0,0,1,136.68,33.54Z"/><path class="cls-1" d="M136.71,41.2c.49,0,1,0,1.48,0a1.49,1.49,0,0,1,0,3q-1.49,0-3,0a1.49,1.49,0,1,1,0-3C135.72,41.19,136.21,41.2,136.71,41.2Z"/><path class="cls-2" d="M115,40.82l12.9,12.89c-.07.16-.27.12-.41.16a33.75,33.75,0,0,0-12.94,6.82c-.26.22-.4.27-.67,0q-2.91-3-5.85-5.86c-.23-.22-.24-.34,0-.59A33.56,33.56,0,0,0,115,41,1.82,1.82,0,0,1,115,40.82Z"/><path class="cls-3" d="M103.7,70.81a1.47,1.47,0,0,1-1.15-.47c-1.37-1.37-2.75-2.73-4.11-4.1a1.48,1.48,0,0,1,0-2.24c2.34-2.35,4.7-4.7,7-7.06.19-.19.29-.21.49,0l5.86,5.86c.19.19.17.28,0,.46l-7.12,7.11A1.37,1.37,0,0,1,103.7,70.81Z"/><path class="cls-3" d="M134.6,52.51a1.45,1.45,0,0,1-.91,1.35,1.44,1.44,0,0,1-1.64-.34l-3.66-3.65-13-13a1.66,1.66,0,0,1-.6-1.1,1.48,1.48,0,0,1,2.4-1.29,3.57,3.57,0,0,1,.28.27L134,51.26A1.69,1.69,0,0,1,134.6,52.51Z"/><path class="cls-3" d="M118.29,77.14a1.54,1.54,0,0,1-1-.46q-3.55-3.57-7.13-7.13c-.15-.15-.2-.24,0-.42.58-.54,1.14-1.11,1.69-1.68.19-.2.3-.15.47,0l7.08,7.09a1.44,1.44,0,0,1,.34,1.69A1.48,1.48,0,0,1,118.29,77.14Z"/><path class="cls-3" d="M117.75,65.11a1.58,1.58,0,0,1-.64,1.28c-.29.26-.52.76-.85.75s-.54-.48-.81-.74-.69-.71-1-1.05c-.2-.18-.18-.29,0-.46.57-.52,1.14-1,1.69-1.59.18-.18.3-.19.48,0s.5.52.76.78A1.42,1.42,0,0,1,117.75,65.11Z"/><path class="cls-1" d="M107.22,63.19a1.35,1.35,0,0,1-.43.89c-.69.69-1.37,1.39-2.07,2.07a1.49,1.49,0,1,1-2.1-2.1q1-1.06,2.1-2.1a1.45,1.45,0,0,1,1.65-.28A1.51,1.51,0,0,1,107.22,63.19Z"/><path class="cls-1" d="M125.87,108.71h-7.62a2,2,0,0,0,0,3.91h7.62v5.86A2,2,0,0,1,124,120.4H35.67a2,2,0,0,1-2-2v-5.86H104a2,2,0,0,0,0-3.91H33.72V57.12a2,2,0,0,1,2-2H98a19.26,19.26,0,0,0,3.43-4L83,51.26c-2.81,0-5.09,0-5.09,0H35.67a5.87,5.87,0,0,0-5.86,5.87v61.33a5.86,5.86,0,0,0,5.86,5.86H69.26v12.5H61.81a2,2,0,0,0,0,3.9h36a2,2,0,0,0,0-3.91H90.36V124.3H124a5.87,5.87,0,0,0,5.86-5.86V60.6a7.47,7.47,0,0,0-3.94,1.16ZM73.17,136.8V124.3H86.45l0,12.5Z"/><path class="cls-1" d="M111.92,108.77h-.08a2,2,0,0,0-.85,3.91,2,2,0,0,0,.85,0h.08a2,2,0,0,0,0-3.91Z"/><circle class="cls-1" cx="79.83" cy="116.48" r="1.49"/><rect class="cls-4" x="43.12" y="61.72" width="18.16" height="18.16" rx="3.61"/><path class="cls-5" d="M54.56,70.8H53v5.51H50.73V70.8H49.64V68.86h1.09V67.6A2.14,2.14,0,0,1,53,65.29h1.7v1.89H53.5a.46.46,0,0,0-.48.53v1.15h1.74Z"/><rect class="cls-6" x="71.09" y="61.74" width="18.16" height="18.16" rx="3.61"/><path class="cls-5" d="M80.15,68.34a2.45,2.45,0,1,0,2.49,2.44A2.49,2.49,0,0,0,80.15,68.34Zm0,4a1.59,1.59,0,1,1,1.59-1.59A1.59,1.59,0,0,1,80.15,72.37Z"/><path class="cls-5" d="M82.71,67.65a.58.58,0,1,0,.57.58A.57.57,0,0,0,82.71,67.65Z"/><path class="cls-5" d="M82.17,66h-4a2.66,2.66,0,0,0-2.8,2.8v4a2.73,2.73,0,0,0,.79,2,2.8,2.8,0,0,0,2,.75h3.92a2.84,2.84,0,0,0,2-.75,2.89,2.89,0,0,0,.79-2v-4A2.66,2.66,0,0,0,82.17,66Zm1.9,6.76a1.84,1.84,0,0,1-.54,1.4,2,2,0,0,1-1.4.5H78.21a2,2,0,0,1-1.4-.5,2,2,0,0,1-.54-1.44v-4a1.74,1.74,0,0,1,1.91-1.91h3.95a1.93,1.93,0,0,1,1.44.54,2,2,0,0,1,.5,1.4Z"/><rect class="cls-7" x="43.12" y="84.09" width="18.16" height="18.16" rx="3.61"/><circle class="cls-5" cx="49.12" cy="90.07" r="1.17"/><rect class="cls-5" x="48.22" y="91.72" width="1.81" height="5.73" rx="0.29"/><path class="cls-5" d="M54.35,91.63a1.8,1.8,0,0,0-1.7.8V92a.27.27,0,0,0-.27-.26H51.11a.27.27,0,0,0-.27.26v5.2a.27.27,0,0,0,.27.27h1.27a.27.27,0,0,0,.27-.27V94.39c0-.37.19-1.2,1-1.2,1,0,.94,1.21.94,1.57v2.42a.27.27,0,0,0,.26.27h1.32a.27.27,0,0,0,.27-.27V94.69C56.45,93.6,56.46,91.63,54.35,91.63Z"/><rect class="cls-8" x="71.09" y="84.07" width="18.16" height="18.16" rx="3.61"/><path class="cls-5" d="M75.15,96.32a5.83,5.83,0,0,0,3.14.91,5.89,5.89,0,0,0,5.89-5.88,1.93,1.93,0,0,0,0-.24,4.45,4.45,0,0,0,1-1,5,5,0,0,1-1.16.3h0a2.2,2.2,0,0,0,.89-1.15,6,6,0,0,1-1,.42l-.3.1a2,2,0,0,0-1.51-.66,2.06,2.06,0,0,0-2.06,2.06,2.34,2.34,0,0,0,0,.47,6.16,6.16,0,0,1-4.23-2.14,2,2,0,0,0,.58,2.73,2.2,2.2,0,0,1-.89-.26,2,2,0,0,0,1.63,2,1.88,1.88,0,0,1-.91,0,2,2,0,0,0,1.9,1.44,3.93,3.93,0,0,1-3,.87Z"/><g class="cls-9"><rect class="cls-10" x="99.06" y="84.07" width="18.16" height="18.16" rx="3.61"/><g id="_395-youtube" data-name="395-youtube"><polygon class="cls-5" points="106.04 97.13 106.04 89.25 112.97 93.19 106.04 97.13"/></g></g></svg>