<svg xmlns="http://www.w3.org/2000/svg" id="Layer_1" data-name="Layer 1" viewBox="0 0 170 170"><defs><style>.cls-1{fill:#f38820;}.cls-2{fill:#3c81c3;}.cls-3{fill:#fff;}.cls-4{fill:#e33b34;}.cls-5{fill:#282d33;}</style></defs><title>Serice Packages Icons</title><rect class="cls-1" x="115.42" y="124.96" width="51.55" height="33.73"/><rect class="cls-2" x="2.19" y="116.66" width="101.89" height="48.14"/><circle class="cls-3" cx="141.43" cy="137.58" r="4.17"/><rect class="cls-4" x="37.44" y="3.29" width="103.94" height="35.74"/><polygon class="cls-3" points="73.47 17.17 73.14 24.8 130.47 25.15 130.47 16.5 73.47 17.17"/><path class="cls-5" d="M54.71,17.35a2.6,2.6,0,1,1,2.6,2.6,2.6,2.6,0,0,1-2.6-2.6Zm10.41,0a7.81,7.81,0,1,0-7.81,7.81,7.81,7.81,0,0,0,7.81-7.81Z"/><polygon class="cls-5" points="48.63 26.89 65.98 26.89 65.98 32.09 48.63 32.09 48.63 26.89 48.63 26.89"/><path class="cls-5" d="M74.83,19.08h52.73v3.47H74.83V19.08Zm57.94,8.67V13.88H69.62V27.76Z"/><path class="cls-5" d="M118.89,55.51h-59V52h59v3.47Zm5.2-8.67H54.7V60.71h69.39V46.84Z"/><polygon class="cls-5" points="54.7 64.18 124.09 64.18 124.09 69.39 54.7 69.39 54.7 64.18 54.7 64.18"/><polygon class="cls-5" points="54.7 74.59 124.09 74.59 124.09 79.8 54.7 79.8 54.7 74.59 54.7 74.59"/><polygon class="cls-5" points="54.7 85 124.09 85 124.09 90.2 54.7 90.2 54.7 85 54.7 85"/><polygon class="cls-5" points="63.38 95.41 115.42 95.41 115.42 100.61 63.38 100.61 63.38 95.41 63.38 95.41"/><path class="cls-5" d="M164.8,156.12H118V126.63H164.8v29.49Zm-60.71,8.67H5.2V120.08L54.64,151.4l49.44-31.31V164.8ZM97.71,118,54.64,145.24,11.57,118Zm45.46,3.47V0H35.62V108.42h5.2V41.63h92.81v-5.2H40.83V5.2H138V121.43H112.76v17.35h-3.47v-26H0V170H109.29V144h3.47v17.35H170v-39.9Z"/><path class="cls-5" d="M141.38,135.31a2.6,2.6,0,1,1-2.6,2.6,2.6,2.6,0,0,1,2.6-2.6Zm0,10.41a7.81,7.81,0,1,0-7.81-7.81,7.81,7.81,0,0,0,7.81,7.81Z"/><polygon class="cls-5" points="132.7 147.45 150.05 147.45 150.05 152.65 132.7 152.65 132.7 147.45 132.7 147.45"/><path class="cls-5" d="M152.25,20.82h3.47V99L154,101.77,152.25,99V20.82Zm0-8.67h3.47v3.47h-3.47V12.14Zm8.67,88.35V6.94H147v93.55l6.94,11.1,6.94-11.1Z"/><path class="cls-5" d="M18.68,60.71h3.47V99l-1.73,2.78L18.68,99V60.71Zm0-39.9h3.47V55.51H18.68V20.82Zm0-8.67h3.47v3.47H18.68V12.14Zm-6.94,8.67h1.74v79.67l6.94,11.1,6.94-11.1V6.94H13.48v8.67H6.54V46h5.2V20.82Z"/></svg>