<svg xmlns="http://www.w3.org/2000/svg" id="Layer_1" data-name="Layer 1" viewBox="0 0 170 170"><defs><style>.cls-1{fill:#7bb042;}.cls-2{fill:#3c81c3;}.cls-3{fill:#f38820;}.cls-4{fill:#282d33;}</style></defs><title>Serice Packages Icons</title><polygon class="cls-1" points="38 82.96 38 150.05 166.67 150.05 166.67 81.63 38 82.96"/><circle class="cls-2" cx="109.06" cy="45.97" r="7.81"/><polygon class="cls-1" points="28.33 4.96 28.33 26.89 5.33 26.89 28.33 4.96"/><polygon class="cls-3" points="44 82.96 102 115.96 160.46 82.96 44 82.96"/><path class="cls-4" d="M166.53,78.06H128.37V69.39h22.55a3.47,3.47,0,0,0,3.47-3.47V24.29a3.47,3.47,0,0,0-3.47-3.47H128.37V3.47A3.47,3.47,0,0,0,124.9,0H27.76A3.45,3.45,0,0,0,25.3,1L1,25.3a3.45,3.45,0,0,0-1,2.45H0V166.53A3.47,3.47,0,0,0,3.47,170H124.9a3.47,3.47,0,0,0,3.47-3.47V154.39h38.16a3.47,3.47,0,0,0,3.47-3.47V81.53a3.47,3.47,0,0,0-3.47-3.47ZM152.82,85l-50.47,27.28L51.88,85Zm-5.37-57.24V62.45H91.94V27.76ZM24.29,11.84V24.29H11.84Zm97.14,151.22H6.94V31.22H27.76a3.47,3.47,0,0,0,3.47-3.47V6.94h90.2V20.82h-33A3.47,3.47,0,0,0,85,24.29V65.92a3.47,3.47,0,0,0,3.47,3.47h33v8.67H38.16a3.47,3.47,0,0,0-3.47,3.47v69.39a3.47,3.47,0,0,0,3.47,3.47h83.27Zm41.63-15.61H41.63V87.35l59.06,31.93a3.46,3.46,0,0,0,3.3,0l59.06-31.93Zm0,0"/><path class="cls-4" d="M109.29,57.24A12.14,12.14,0,1,0,97.14,45.1a12.16,12.16,0,0,0,12.14,12.14Zm0-17.35a5.2,5.2,0,1,1-5.2,5.2,5.21,5.21,0,0,1,5.2-5.2Zm0,0"/><rect class="cls-4" x="126.63" y="34.69" width="15.61" height="6.94"/><rect class="cls-4" x="126.63" y="46.84" width="15.61" height="6.94"/><rect class="cls-4" x="20.82" y="48.57" width="55.51" height="6.94"/><rect class="cls-4" x="20.82" y="62.45" width="55.51" height="6.94"/><rect class="cls-4" x="55.51" y="34.69" width="20.82" height="6.94"/><rect class="cls-4" x="55.51" y="20.82" width="20.82" height="6.94"/></svg>