<svg xmlns="http://www.w3.org/2000/svg" id="Layer_1" data-name="Layer 1" viewBox="0 0 170 170"><defs><style>.cls-1{fill:#e33b34;}.cls-2{fill:#3c81c3;}.cls-3{fill:#7bb042;}.cls-4{fill:#282d33;}</style></defs><title>Serice Packages Icons</title><rect class="cls-1" x="24.96" y="133.41" width="22.22" height="22.22"/><path class="cls-2" d="M58.87,59v51H167V56.13S163.54,69,143.87,69s-70.21-1-70.21-1S61.54,64.79,58.87,59Z"/><polygon class="cls-3" points="3.21 155.63 14.87 155.63 13.87 31.63 104.2 31.63 104.2 2.13 3.21 3.29 3.21 155.63"/><path class="cls-4" d="M164.33,107.69h-102V64.88a19.76,19.76,0,0,0,14.17,6h73.67a19.76,19.76,0,0,0,14.17-6v42.81Zm-51,11.33H70.83a2.83,2.83,0,0,0-1.27.28L58.23,125a2.83,2.83,0,0,0,0,5.07l11.33,5.67a2.83,2.83,0,0,0,1.27.31h42.5v5.67H70.83a2.83,2.83,0,0,0-1.27.28l-11.33,5.67a2.83,2.83,0,0,0,0,5.07l11.33,5.67a2.83,2.83,0,0,0,1.27.31h42.5v5.67H17V34h96.33V48.2H59.5A2.83,2.83,0,0,0,56.67,51v59.5a2.83,2.83,0,0,0,2.83,2.83h53.83V119Zm51,8.5a2.83,2.83,0,0,1-2.83,2.83H153v-5.67h8.5a2.83,2.83,0,0,1,2.83,2.83Zm-22.67-2.83h5.67v5.67h-5.67v-5.67Zm-65.17,0H136v5.67H76.5v-5.67ZM70.83,130l-5-2.5,5-2.5v5Zm93.5,23h-5.67v-5.67h5.67V153ZM71.5,153l-5.67-2.83,5.67-2.83H153V153ZM11.33,31.19V153H5.67V16.71a19.76,19.76,0,0,0,14.17,6H51v5.67H14.17a2.83,2.83,0,0,0-2.83,2.83ZM19.83,17A14.19,14.19,0,0,1,5.95,5.69h95.77A14.19,14.19,0,0,1,87.83,17ZM102,28.36H56.67V22.69H87.83a19.76,19.76,0,0,0,14.17-6V28.36Zm62.05,25.5A14.19,14.19,0,0,1,150.17,65.2H76.5A14.19,14.19,0,0,1,62.62,53.86Zm3.12-5.67H119v-17a2.83,2.83,0,0,0-2.83-2.83h-8.5V2.86A2.83,2.83,0,0,0,104.83,0H2.83A2.83,2.83,0,0,0,0,2.86v153a2.83,2.83,0,0,0,2.83,2.83h8.5v8.5A2.83,2.83,0,0,0,14.17,170h102a2.83,2.83,0,0,0,2.83-2.83v-8.5h34v5.67H133.17V170h22.67a2.83,2.83,0,0,0,2.83-2.83v-8.5h8.5a2.83,2.83,0,0,0,2.83-2.83V144.53a2.83,2.83,0,0,0-2.83-2.83H119V136h42.5a8.5,8.5,0,1,0,0-17H119v-5.67h48.17a2.83,2.83,0,0,0,2.83-2.83V51a2.83,2.83,0,0,0-2.83-2.83Z"/><polygon class="cls-4" points="68 85.03 73.67 85.03 73.67 90.69 68 90.69 68 85.03 68 85.03"/><polygon class="cls-4" points="82.17 85.03 119 85.03 119 90.69 82.17 90.69 82.17 85.03 82.17 85.03"/><polygon class="cls-4" points="82.17 96.36 107.67 96.36 107.67 102.03 82.17 102.03 82.17 96.36 82.17 96.36"/><path class="cls-4" d="M28.33,153V136h17v17Zm17-28.33v5.67h-17v-5.67ZM48.17,119H25.5a2.83,2.83,0,0,0-2.83,2.83v34a2.83,2.83,0,0,0,2.83,2.83H48.17A2.83,2.83,0,0,0,51,155.86v-34A2.83,2.83,0,0,0,48.17,119Z"/><polygon class="cls-4" points="34 141.69 39.67 141.69 39.67 147.36 34 147.36 34 141.69 34 141.69"/></svg>